<?xml version="1.0" encoding="UTF-8" standalone="no"?>
<svg
   width="128"
   height="128"
   viewBox="0 0 128 128"
   fill="none"
   version="1.1"
   id="svg19"
   sodipodi:docname="Freecad_logo_large.svg"
   inkscape:version="1.2.2 (b0a8486541, 2022-12-01)"
   xmlns:inkscape="http://www.inkscape.org/namespaces/inkscape"
   xmlns:sodipodi="http://sodipodi.sourceforge.net/DTD/sodipodi-0.dtd"
   xmlns="http://www.w3.org/2000/svg"
   xmlns:svg="http://www.w3.org/2000/svg">
  <sodipodi:namedview
     id="namedview21"
     pagecolor="#ffffff"
     bordercolor="#000000"
     borderopacity="0.25"
     inkscape:showpageshadow="2"
     inkscape:pageopacity="0.0"
     inkscape:pagecheckerboard="0"
     inkscape:deskcolor="#d1d1d1"
     showgrid="false"
     inkscape:zoom="2.5424951"
     inkscape:cx="12.192747"
     inkscape:cy="26.352067"
     inkscape:window-width="1910"
     inkscape:window-height="1009"
     inkscape:window-x="0"
     inkscape:window-y="35"
     inkscape:window-maximized="1"
     inkscape:current-layer="svg19" />
  <g
     clip-path="url(#clip0_197_378)"
     id="g10"
     transform="matrix(0.26666667,0,0,0.26666667,10.666666,-2.392153e-6)">
    <path
       fill-rule="evenodd"
       clip-rule="evenodd"
       d="m 80,0 h 320 v 80 l -80,80 V 80 H 80 v 320 h 80 L 80,480 H 0 V 80 Z"
       fill="#ff585d"
       id="path2" />
    <path
       d="M 80,320 0,400 V 80 L 80,0 H 320 L 240,80 H 80 Z"
       fill="#cb333b"
       id="path4" />
    <path
       fill-rule="evenodd"
       clip-rule="evenodd"
       d="m 400,80 -79.995,80.005 h -160 v 59.996 H 240 v 80.005 H 160.005 V 400 L 80,480.005 h 81.008 c 6.065,0 11.437,-3.905 13.311,-9.674 l 14.48,-44.565 c 1.385,-4.262 4.73,-7.597 8.992,-8.982 l 11.131,-3.617 c 4.262,-1.385 8.931,-0.65 12.557,1.984 l 37.9,27.544 c 4.906,3.565 11.557,3.565 16.464,0 l 33.972,-24.691 c 4.907,-3.565 6.959,-9.879 5.085,-15.648 l -14.48,-44.565 c -1.385,-4.262 -0.64,-8.932 1.995,-12.557 l 6.883,-9.468 c 2.634,-3.625 6.836,-5.777 11.317,-5.777 l 46.86,0.01 c 6.066,0 11.438,-3.915 13.312,-9.684 l 12.981,-39.935 c 1.874,-5.769 -0.178,-12.093 -5.085,-15.658 l -37.91,-27.544 c -3.625,-2.634 -5.767,-6.835 -5.767,-11.317 v -11.709 c 0.001,-4.482 2.141,-8.694 5.767,-11.328 l 43.46,-31.574 c 3.625,-2.634 5.767,-6.846 5.767,-11.328 z"
       fill="#418fde"
       id="path6" />
    <path
       fill-rule="evenodd"
       clip-rule="evenodd"
       d="m 80,80 h 240 v 80 H 160 v 60.001 h 80 V 300 H 160 V 400 H 80 Z"
       fill="#ffffff"
       id="path8" />
  </g>
  <defs
     id="defs17">
    <clipPath
       id="clip0_197_378">
      <rect
         width="400"
         height="480"
         fill="#ffffff"
         id="rect14"
         x="0"
         y="0" />
    </clipPath>
  </defs>
</svg>
